<?xml version="1.0" encoding="iso-8859-1"?>
<!-- Uploaded to: SVG Repo, www.svgrepo.com, Generator: SVG Repo Mixer Tools -->
<svg height="800px" width="800px" version="1.1" id="Layer_1" xmlns="http://www.w3.org/2000/svg" xmlns:xlink="http://www.w3.org/1999/xlink" 
	 viewBox="0 0 512 512" xml:space="preserve">
<path style="fill:#4FC0E8;" d="M512,256.006C512,397.402,397.394,512.004,256.004,512C114.606,512.004,0,397.402,0,256.006
	C-0.007,114.61,114.606,0,256.004,0C397.394,0,512,114.614,512,256.006z"/>
<path style="fill:#3DAED9;" d="M510.218,285.803c-0.011-0.007-0.016-0.019-0.027-0.027
	c-0.463-0.658-157.826-158.021-158.483-158.483c-1.254-1.786-3.227-3.027-5.574-3.027H210.586c-0.338-0.476-0.807-0.799-1.245-1.169
	l-30.19-30.282c-1.273-2.004-3.481-3.216-5.854-3.216H96.533c-3.828,0-6.933,3.102-6.933,6.933V325.13
	c0,0.569,0.071,1.131,0.206,1.679c1.569,6.275,4.823,11.632,9.162,15.879c0.524,0.591,167.931,167.942,168.493,168.493
	c0.162,0.182,0.345,0.343,0.515,0.516C393.833,505.905,495.901,409.252,510.218,285.803z"/>
<g>
	<path style="fill:#F4F6F9;" d="M420.369,410.564l-44.019-44.019c8.06-10.18,12.914-23.011,12.914-36.974
		c0-32.919-26.779-59.706-59.692-59.706c-32.924,0.001-59.706,26.786-59.706,59.707s26.782,59.706,59.706,59.706
		c13.965,0,26.797-4.858,36.976-12.925l44.016,44.016c1.355,1.355,3.129,2.031,4.902,2.031c1.774,0,3.548-0.677,4.902-2.031
		C423.077,417.661,423.077,413.273,420.369,410.564z M283.733,329.572c0-25.276,20.563-45.839,45.839-45.839
		c25.268,0,45.825,20.563,45.825,45.839c0,25.276-20.556,45.839-45.825,45.839C304.297,375.41,283.733,354.847,283.733,329.572z"/>
	<path style="fill:#F4F6F9;" d="M221.333,339.2h-68.669c2.755-3.602,4.897-7.73,6.063-12.39c0.135-0.548,0.207-1.11,0.207-1.679
		V172.8h208v48.533c0,3.833,3.104,6.933,6.933,6.933c3.829,0,6.933-3.101,6.933-6.933v-55.467c0-3.833-3.104-6.933-6.933-6.933
		h-20.801V131.2c0-3.833-3.104-6.933-6.933-6.933H199.122l-19.97-31.451c-1.273-2.004-3.481-3.216-5.854-3.216H96.533
		c-3.829,0-6.933,3.101-6.933,6.933v228.597c0,0.569,0.071,1.131,0.207,1.679c3.765,15.062,16.852,25.25,32.813,25.925
		c0.542,0.135,1.063,0.332,1.647,0.332h97.067c3.829,0,6.933-3.101,6.933-6.933S225.163,339.2,221.333,339.2z M103.467,324.223
		V103.467h66.022l19.97,31.451c1.273,2.004,3.481,3.216,5.854,3.216H339.2v20.8H152c-3.829,0-6.933,3.101-6.933,6.933v158.356
		c-3.129,10.887-13.082,14.774-20.8,14.774S106.595,335.11,103.467,324.223z"/>
</g>
</svg>